<svg id="Layer_1" data-name="Layer 1" xmlns="http://www.w3.org/2000/svg" width="251.49" height="399.06" viewBox="0 0 251.49 399.06">
  <defs>
    <style>
      .cls-1 {
        fill: #2e3934;
      }
    </style>
  </defs>
  <title>DofE logo gunmetal full</title>
  <path class="cls-1" d="M125.32,281.22c-4.53,0-7.22-3-7.22-5.82a4.11,4.11,0,0,1,.57-2c.4,1.44.85,4.3,4.14,4.74,6.62.89,11.95-8.61,15.83-26l1-4c.7-2.8,1.53-6.15,2-7.93l-10.91,0a12.67,12.67,0,0,1,3,8.51c0,8.12-6.43,17.19-15.05,17.19-7.07,0-9-6.7-9-10.65,0-9,7.11-17.83,14.35-17.89h0l18.34,0c.26-.95.81-2.84.81-2.84,2.41-8.45,7.06-14.13,13.53-14.13,4.93,0,7.39,4.06,7.39,6.21a4,4,0,0,1-1.08,2.61,4.77,4.77,0,0,0-3.22-5c-8.77-3-11.81,13.18-11.81,13.18h9.49c4.25,0,6-1.3,6-1.3s-.87,4.18-7.78,4.18h-8.36c-.26.94-2.12,7.56-2.12,7.56-1.84,6.59-3.91,14-5.56,19.08-1.05,3.38-5.16,14.37-14.43,14.37ZM58,305.52H49V198.77h8.68c8.28,0,44,2,44,52.28S76.43,305.52,58,305.52Zm67.43,26.24h126L240,295.66c-1.64,4.54-7.65,8.43-17.85,8.43H175.58V259.54h34.29c15.67,0,21.14-23.3,21.14-23.3-2,2-4.68,3.29-17.75,3.29H175.58V200.2l42.49.11c.08.06,7.87,0,8.48,0,10.2,0,16,6.17,16,10.71l6.95-37.3H126.38c2.78,2.36,11,8.12,11,18.05,0,0,0,9.54,0,27.45-.51-1.48-1.06-2.92-1.66-4.34-10.68-25.36-30.9-41.31-68.44-41.31L0,173.72c3.14,2.63,11.85,9.28,11.85,19.47V314.72c-1.63,8.66-8.75,14.62-11.62,17,0,0,61.79-.09,66.56-.26s9.1-.75,13-.75c36.13,0,54.13-33.94,57.54-43.28v24.8c0,10.22-8.73,16.85-11.86,19.49Zm-.64-91.51c-4.32,0-9.13,10.8-9.13,18.13,0,2.22,1,4.6,3,4.6,4.16,0,9.44-10,9.44-17.76,0-2.27-.57-5-3.26-5ZM155.38,26.31c-.21.38-1-.29-1-.29l-2.3-2.38c-.59-.44-.44-.81.22-1.11.29-.13.89-.35,1.48-.57h0c.92-.35,1.5-.55,1.5-.55.38-.08.74-.31,1,.14a5.88,5.88,0,0,1-.9,4.75Zm-5.95,3.58c-5-1.47-15.64-2.77-23.68-2.74S107,28.42,102.07,29.89c-2,.59-1.93-.9-1-1.64,1.72-1.16,5.25-2.06,9.38-2.71a120,120,0,0,1,15.27-1.23v0A120.59,120.59,0,0,1,141,25.54c4.09.65,7.65,1.55,9.36,2.71,1,.74,1,2.23-1,1.64ZM148,35.17a1.59,1.59,0,0,1-2-1.94c.23-.89-1-1.34-2.53-1.56a166.27,166.27,0,0,0-17.73-1,166.7,166.7,0,0,0-17.74,1c-1.56.22-2.75.67-2.52,1.56a1.59,1.59,0,0,1-2,1.94c-3.94-.82-3-3-1.35-3.86,3.55-1.56,8.83-2.38,23.62-2.75,14.79.37,20.07,1.19,23.61,2.75,1.63.82,2.6,3-1.34,3.86ZM99.39,23.64,97.08,26s-.74.67-1,.29a5.91,5.91,0,0,1-.89-4.75c.23-.45.6-.22,1-.14,0,0,.58.2,1.51.55h0c.58.22,1.17.44,1.46.57.67.3.82.67.23,1.11Zm11-5.07c2-.5,3.92.08,4.24,1.33s-1.09,2.65-3.11,3.17c-.29.06-1,.13-1.23.16-1.52.07-2.76-.51-3-1.5-.3-1.24,1.08-2.64,3.11-3.16Zm11.9.68,3.09-1.74h.41a.32.32,0,0,1,.41,0l3.1,1.74a.56.56,0,0,1,0,.94L126,22.45l-.23.05-.22-.05s-3-2-3.33-2.26a.56.56,0,0,1,0-.94Zm14.67.65c.3-1.25,2.2-1.83,4.23-1.33s3.43,1.92,3.11,3.16c-.25,1-1.49,1.57-3,1.5-.27,0-.93-.1-1.21-.16-2-.52-3.43-1.92-3.11-3.17Zm26.57-9-6.1-3v6.55l-3.86-3-2.38,5.8s4-.3,5.21.45a7.61,7.61,0,0,1-3.24,2v0c-4.68,1.37-10.4-1.78-9.68-3.79,1.19-3.73,4.75-1.79,4,.58,5.19-1.79,2.68-7.88-2.38-5.8,1.93-2.52,1.93-5.94-.29-7.87-3.27.59-3.86,3.86-3,7.28-7-3.72-7.57,3.86-5,4.47,1.34-2.39,4.17-1.05,3.41.88-1.48,3.87-12,2.67-12-2.23,0-2.37,3-1.63,5.65-.59V4.16l-5.35,1.93L130.64,0h-9.79l2.23,6.09-5.35-1.93v8.48c2.67-1,5.65-1.78,5.65.59,0,4.9-10.55,6.1-12,2.23-.74-1.93,2.08-3.27,3.42-.88,2.52-.61,1.93-8.19-5.05-4.47.89-3.42.3-6.69-3-7.28-2.22,1.93-2.22,5.35-.29,7.87-5.06-2.08-7.58,4-2.39,5.8-.73-2.37,2.83-4.31,4-.58.71,2-5,5.16-9.68,3.79v0a7.67,7.67,0,0,1-3.24-2c1.19-.75,5.21-.45,5.21-.45L98,11.45l-3.86,3V7.88l-6.09,3L93.51,21A7.94,7.94,0,0,0,95,27.22a5.51,5.51,0,0,1,.9,4.6c-.44,1.35,1.62,2.83,3.56,3.57,7.91,2.93,25.79,3,26.29,3h0c.51,0,18.38,0,26.29-3,1.94-.74,4-2.22,3.57-3.57a5.52,5.52,0,0,1,.89-4.6A7.87,7.87,0,0,0,158,21l5.5-10.11Zm13.82,82.68c-5.23,6.78-17.08,10.66-30.16,3.89,6.92-18.34,13.41-31.08,20.39-39.26C182.65,69.6,183.05,86,177.31,93.54ZM136.2,98.25a203.4,203.4,0,0,1-10.44,22.09A203.44,203.44,0,0,1,115.3,98.25a2.92,2.92,0,0,0-.14-.31,48.71,48.71,0,0,0,10.58-12.66,49,49,0,0,0,10.59,12.66,2.88,2.88,0,0,0-.13.31Zm-62-4.71C68.46,86,68.86,69.59,84,58.15c7,8.18,13.46,20.93,20.37,39.29-13.07,6.76-24.89,2.88-30.12-3.9ZM192.4,46.35c-10.5-3.29-19.13-1.31-26.63,4.36a36.7,36.7,0,0,0-23.42-2.86,66.66,66.66,0,0,1,19.23,6.52C153.05,62.84,146,76.23,139,91.85A68.74,68.74,0,0,1,125.78,76a69,69,0,0,1-13.26,15.87c-7-15.62-14.06-29-22.59-37.5a66.72,66.72,0,0,1,19.21-6.51,36.68,36.68,0,0,0-23.39,2.86c-7.5-5.67-16.13-7.65-26.66-4.36A28,28,0,0,1,80,54C64.38,64.57,56.13,85,66.8,99.69c10,13.74,26.44,12.15,40,4.28l.15.43A116.68,116.68,0,0,0,120,129.76c-12.47,18.35-28.14,29-48.18,22.25,14.58,14.43,36.65,6.08,54-14.61,17.31,20.69,39.35,29,53.94,14.61-20,6.72-35.68-3.9-48.16-22.25a116,116,0,0,0,13.05-25.36l.17-.44c13.52,7.88,30,9.47,40-4.27C195.37,85,187.15,64.57,171.56,54a28,28,0,0,1,20.84-7.65Z"/>
  <g>
    <path class="cls-1" d="M77.64,343.49h11v2.05H84.31v11.52H81.93V345.54H77.64Z"/>
    <path class="cls-1" d="M90.14,343.49h2.38v5.4h6.17v-5.4h2.38v13.57H98.69v-6.12H92.52v6.12H90.14Z"/>
    <path class="cls-1" d="M103.92,343.49h9.76v2.05h-7.39v3.56h6.84V351h-6.84v4h7.53v2.05h-9.9Z"/>
    <path class="cls-1" d="M121.17,343.49h5.62c4.18,0,6,3,6,6.79s-1.81,6.78-6,6.78h-5.62Zm2.37,11.63h2.34c3.72,0,4.52-2.13,4.52-4.84s-.8-4.85-4.52-4.85h-2.34Z"/>
    <path class="cls-1" d="M134.74,343.49h2.37v7.91c0,1.82.11,3.93,3.19,3.93s3.19-2.11,3.19-3.93v-7.91h2.38v8.69c0,3.47-2.23,5.2-5.57,5.2s-5.56-1.73-5.56-5.2Z"/>
    <path class="cls-1" d="M148.6,343.49H151v6.18l6-6.18H160l-5.42,5.42,5.8,8.15h-3l-4.44-6.48L151,352.5v4.56H148.6Z"/>
    <path class="cls-1" d="M161.62,343.49h9.76v2.05H164v3.56h6.84V351H164v4h7.53v2.05h-9.9Z"/>
    <path class="cls-1" d="M57.59,371.28c0,3.87-2.43,7.1-6.49,7.1s-6.5-3.23-6.5-7.1,2.43-7.11,6.5-7.11S57.59,367.4,57.59,371.28Zm-10.61,0c0,2.6,1.21,5.16,4.12,5.16s4.12-2.56,4.12-5.16-1.22-5.17-4.12-5.17S47,368.67,47,371.28Z"/>
    <path class="cls-1" d="M59.76,364.49h9.37v2.05h-7v3.56h6.13V372H62.14v6H59.76Z"/>
    <path class="cls-1" d="M76.31,364.49h9.77v2.05H78.69v3.56h6.83V372H78.69v4h7.52v2.05h-9.9Z"/>
    <path class="cls-1" d="M88.28,364.49H93.9c4.18,0,6,3,6,6.79s-1.81,6.78-6,6.78H88.28Zm2.38,11.63H93c3.73,0,4.52-2.13,4.52-4.84s-.79-4.85-4.52-4.85H90.66Z"/>
    <path class="cls-1" d="M102,364.49h2.37v13.57H102Z"/>
    <path class="cls-1" d="M107.19,364.49h2.5l6.2,10h0v-10h2.27v13.57h-2.51l-6.18-10h0v10h-2.26Z"/>
    <path class="cls-1" d="M121,364.49h6.59c2.43,0,4,1.11,4,3.37a3,3,0,0,1-1.94,2.88v0a3.24,3.24,0,0,1,2.55,3.5c0,2.13-1.49,3.78-5,3.78H121Zm2.37,5.68h3.88a1.81,1.81,0,0,0,2-1.88c0-1.37-.7-1.86-2-1.86h-3.88Zm0,5.95h4.2a2,2,0,0,0,2.28-2.15,2,2,0,0,0-2.28-2.09h-4.2Z"/>
    <path class="cls-1" d="M134.22,364.49h2.38v7.91c0,1.82.11,3.93,3.19,3.93s3.19-2.11,3.19-3.93v-7.91h2.37v8.69c0,3.47-2.22,5.2-5.56,5.2s-5.57-1.73-5.57-5.2Z"/>
    <path class="cls-1" d="M148.09,364.49h6.48c3,0,4.48,1.37,4.48,3.67a3.29,3.29,0,0,1-2.24,3.42v0c.82.11,2,.72,2,2.87,0,1.57.22,3,.74,3.57H157a3.8,3.8,0,0,1-.36-2c0-2.49-.51-3.59-2.7-3.59h-3.49v5.59h-2.38Zm2.38,6.18h3.89c1.5,0,2.32-.74,2.32-2.17,0-1.73-1.12-2.07-2.36-2.07h-3.85Z"/>
    <path class="cls-1" d="M173.3,378.06h-1.52l-.36-1.6a4.87,4.87,0,0,1-4.08,1.92c-4.07,0-6.5-3.23-6.5-7.1s2.43-7.11,6.5-7.11c3,0,5.45,1.58,5.81,4.64h-2.32a3.22,3.22,0,0,0-3.49-2.7c-2.91,0-4.12,2.56-4.12,5.17s1.21,5.16,4.12,5.16a3.45,3.45,0,0,0,3.8-3.72h-3.61v-1.8h5.77Z"/>
    <path class="cls-1" d="M175.83,364.49h2.38v5.4h6.17v-5.4h2.38v13.57h-2.38v-6.12h-6.17v6.12h-2.38Z"/>
    <path class="cls-1" d="M189.63,368.75c.91-.12,1.16-.86,1.16-1.69h-1.16v-2.57H192v2.57a2.67,2.67,0,0,1-2.37,2.79Z"/>
    <path class="cls-1" d="M196.45,373.54c0,2.09,1.54,2.9,3.44,2.9,2.08,0,2.86-1,2.86-2.05a1.62,1.62,0,0,0-1.12-1.67c-.95-.36-2.18-.61-4-1.12-2.32-.63-3-2-3-3.44,0-2.72,2.51-4,5-4,2.83,0,5.21,1.5,5.21,4.33h-2.38c-.11-1.75-1.29-2.39-2.92-2.39-1.1,0-2.49.4-2.49,1.77,0,.95.65,1.48,1.61,1.74.21.06,3.22.84,3.92,1.05a3.59,3.59,0,0,1,2.64,3.46c0,3-2.7,4.25-5.4,4.25-3.09,0-5.6-1.48-5.66-4.84Z"/>
    <path class="cls-1" d="M95.18,385.49h2.53l5.22,13.57h-2.55l-1.27-3.59H93.7l-1.28,3.59H90Zm-.84,8.17h4.15l-2-5.83h0Z"/>
    <path class="cls-1" d="M102.42,385.49h2.41l2.45,10.38h0l2.73-10.38h2.44l2.65,10.38h0l2.53-10.38h2.41l-3.74,13.57H114l-2.72-10.37h0l-2.77,10.37H106Z"/>
    <path class="cls-1" d="M124.83,385.49h2.53l5.22,13.57H130l-1.27-3.59h-5.42l-1.27,3.59h-2.45Zm-.83,8.17h4.14l-2-5.83h-.06Z"/>
    <path class="cls-1" d="M133.88,385.49h6.47c3,0,4.49,1.37,4.49,3.67a3.3,3.3,0,0,1-2.24,3.42v0c.81.11,2,.72,2,2.87,0,1.57.23,3,.74,3.57H142.8a3.8,3.8,0,0,1-.36-2c0-2.49-.51-3.59-2.69-3.59h-3.5v5.59h-2.37Zm2.37,6.18h3.9c1.5,0,2.31-.74,2.31-2.17,0-1.73-1.12-2.07-2.35-2.07h-3.86Z"/>
    <path class="cls-1" d="M147.25,385.49h5.63c4.18,0,6,3,6,6.79s-1.8,6.78-6,6.78h-5.63Zm2.38,11.63H152c3.73,0,4.53-2.13,4.53-4.84s-.8-4.85-4.53-4.85h-2.33Z"/>
  </g>
</svg>
